# Blender 4.3.2
# www.blender.org
o TomGroup_0
v -1.465659 -0.252214 0.638953
v -2.331595 0.000000 0.697963
v -1.465659 0.252214 0.638953
v -0.977392 -0.461483 0.105930
v -1.237214 -0.348681 0.029120
v -1.247173 -0.553809 0.045590
v -0.977392 -0.461483 0.105930
v -0.968943 -0.432878 0.071777
v -1.237214 -0.348681 0.029120
v -0.962146 -0.501241 0.092744
v -1.247173 -0.553809 0.045590
v -1.736347 -0.321509 1.221772
v -1.567302 -0.263349 1.207325
v -1.519218 -0.469898 1.427377
v -1.644716 -0.189543 1.300740
v -1.519218 -0.469898 1.427377
v -1.567302 -0.263349 1.207325
v -1.644716 -0.189543 1.300740
v -1.736347 -0.321509 1.221772
v -1.519218 -0.469898 1.427377
v -1.492423 -0.240229 1.064996
v -1.644716 -0.189543 1.300740
v -1.567302 -0.263349 1.207325
v -1.535175 0.000000 1.272162
v -1.644716 -0.189543 1.300740
v -1.492423 -0.240229 1.064996
v 4.371305 -0.013018 0.204080
v 5.860327 -0.000032 0.215189
v 4.369667 0.000000 0.256209
v 0.665375 -0.706615 0.396015
v 0.723392 -0.559201 0.113255
v 0.796844 -0.594959 0.077446
v -1.736347 -0.321509 1.221772
v -1.492423 -0.240229 1.064996
v -1.567302 -0.263349 1.207325
v -0.977392 0.461483 0.105930
v -1.237214 0.348681 0.029120
v -0.968943 0.432879 0.071777
v -1.736347 0.321509 1.221772
v -1.519219 0.469897 1.427377
v -1.567302 0.263349 1.207325
v -1.644716 0.189542 1.300740
v -1.567302 0.263349 1.207325
v -1.519219 0.469897 1.427377
v -1.644716 0.189542 1.300740
v -1.519219 0.469897 1.427377
v -1.736347 0.321509 1.221772
v -1.492423 0.240229 1.064996
v -1.567302 0.263349 1.207325
v -1.644716 0.189542 1.300740
v -1.644716 0.189542 1.300740
v -1.535175 0.000000 1.272162
v -1.492423 0.240229 1.064996
v 4.371305 0.013018 0.204080
v 4.369667 0.000000 0.256209
v 5.860327 0.000032 0.215189
v 0.796844 0.594959 0.077446
v 0.723392 0.559201 0.113255
v 0.665375 0.706615 0.396015
v -1.492423 0.240229 1.064996
v -1.736347 0.321509 1.221772
v -1.567302 0.263349 1.207325
v 0.432078 -0.602012 1.292826
v 0.704380 -0.388745 0.355914
v 1.465504 -0.157933 0.488566
v 0.718322 0.000000 1.548037
v 1.541876 0.000000 0.733696
v 0.246133 0.000000 1.619359
v -1.492423 -0.240229 1.064996
v -1.535175 0.000000 1.272162
v -0.661509 -0.551533 0.609478
v -1.106879 -0.542299 0.523856
v -1.465659 -0.252214 0.638953
v 0.402656 -0.675437 0.646709
v 0.217613 -0.457697 0.412675
v -0.748258 -0.355416 0.438781
v -0.760020 -0.355416 0.342071
v -1.106879 -0.542299 0.523856
v -1.465659 -0.252214 0.638953
v 0.704380 -0.388745 0.355914
v -1.465659 -0.252214 0.638953
v -2.485723 -0.155023 0.954962
v -2.331595 0.000000 0.697963
v -2.573213 0.000000 0.973393
v -1.639576 0.000000 1.321221
v -1.644716 -0.189543 1.300740
v -1.736347 -0.321509 1.221772
v -2.573213 0.000000 0.973393
v -2.485723 -0.155023 0.954962
v 0.723392 -0.559201 0.113255
v 0.135154 -0.642322 0.047519
v 0.796844 -0.594959 0.077446
v 0.137457 -0.441273 0.025096
v 0.789080 -0.506673 0.083485
v -1.465659 -0.252214 0.638953
v -1.492423 -0.240229 1.064996
v 4.369667 0.000000 0.256209
v 3.405975 -0.018143 0.185566
v 4.371305 -0.013018 0.204080
v 3.404213 0.000000 0.247285
v 2.222188 -0.021755 0.223857
v 2.224928 0.000000 0.324019
v -0.962146 -0.501241 0.092744
v -0.861509 -0.472928 0.190608
v -0.977392 -0.461483 0.105930
v -0.813503 -0.551152 0.214647
v -0.746897 -0.473853 0.173313
v -0.962146 -0.501241 0.092744
v -0.968943 -0.432878 0.071777
v -0.813503 -0.551152 0.214647
v -0.661509 -0.551533 0.609478
v -0.748258 -0.355416 0.438781
v -1.106879 -0.542299 0.523856
v -0.861509 -0.472928 0.190608
v -0.968943 -0.432878 0.071777
v -0.977392 -0.461483 0.105930
v -0.746897 -0.473853 0.173313
v -0.748258 -0.355416 0.438781
v -1.106879 -0.542299 0.523856
v 0.461267 -0.709353 0.334175
v 0.723392 -0.559201 0.113255
v 0.402656 -0.675437 0.646709
v 0.704380 -0.388745 0.355914
v 0.796844 -0.594959 0.077446
v 0.789080 -0.506673 0.083485
v 0.217613 -0.457697 0.412675
v 0.704380 -0.388745 0.355914
v 0.789080 -0.506673 0.083485
v 0.461267 -0.709353 0.334175
v 1.465504 -0.157933 0.488566
v 1.541876 0.000000 0.733696
v 2.222188 -0.021755 0.223857
v -0.977392 0.461483 0.105930
v -1.247173 0.553809 0.045590
v -1.237214 0.348681 0.029120
v -0.962146 0.501241 0.092744
v -1.465659 0.252214 0.638953
v -2.331595 0.000000 0.697963
v -2.485723 0.155023 0.954962
v -2.573213 0.000000 0.973393
v -1.639576 0.000000 1.321221
v -1.644716 0.189542 1.300740
v -1.736347 0.321509 1.221772
v -2.573213 0.000000 0.973393
v -2.485723 0.155023 0.954962
v 0.796844 0.594959 0.077446
v 0.135154 0.642322 0.047519
v 0.723392 0.559201 0.113255
v 0.137457 0.441274 0.025096
v 0.789080 0.506673 0.083485
v -1.465659 0.252214 0.638953
v -1.492423 0.240229 1.064996
v 3.405975 0.018143 0.185566
v 4.369667 0.000000 0.256209
v 4.371305 0.013018 0.204080
v 3.404213 0.000000 0.247285
v 2.223488 0.021755 0.225331
v 2.224928 0.000000 0.324019
v 1.465504 0.157933 0.488566
v 1.541876 0.000000 0.733696
v -0.861509 0.472928 0.190608
v -0.962146 0.501241 0.092744
v -0.977392 0.461483 0.105930
v -0.813503 0.551152 0.214647
v -0.746897 0.473853 0.173313
v -0.968943 0.432879 0.071777
v -0.962146 0.501241 0.092744
v -0.813503 0.551152 0.214647
v -0.661509 0.551533 0.609478
v -1.106879 0.542299 0.523856
v -0.748258 0.355416 0.438781
v -0.977392 0.461483 0.105930
v -0.968943 0.432879 0.071777
v -0.861509 0.472928 0.190608
v -0.746897 0.473853 0.173313
v -0.748258 0.355416 0.438781
v -1.106879 0.542299 0.523856
v 0.723392 0.559201 0.113255
v 0.461267 0.709353 0.334175
v 0.402656 0.675437 0.646709
v 0.217613 0.457697 0.412675
v 0.704380 0.388745 0.355914
v 0.796844 0.594959 0.077446
v 0.789080 0.506673 0.083485
v 0.461267 0.709353 0.334175
v 1.541876 0.000000 0.733696
v 1.465504 0.157933 0.488566
v 0.718322 0.000000 1.548037
v 0.432078 0.602012 1.292826
v 0.704380 0.388745 0.355914
v 0.402656 0.675437 0.646709
v -0.661509 0.551533 0.609478
v 0.217613 0.457697 0.412675
v 0.246133 0.000000 1.619359
v -1.492423 0.240229 1.064996
v -1.106879 0.542299 0.523856
v -1.465659 0.252214 0.638953
v -1.535175 0.000000 1.272162
v -0.748258 0.355416 0.438781
v 0.217613 -0.457697 0.412675
v 0.704380 -0.388745 0.355914
v 0.704380 0.388745 0.355914
v 1.465504 0.157933 0.488566
v 1.465504 -0.157933 0.488566
v -0.760020 -0.355416 0.342071
v -1.106879 0.542299 0.523856
v -1.465659 -0.252214 0.638953
v -1.465659 0.252214 0.638953
v 2.222188 -0.021755 0.223857
v 1.465504 -0.157933 0.488566
v 1.465504 0.157933 0.488566
v 2.223488 0.021755 0.225331
vn -0.2192 0.0153 -0.9755
vn -0.0680 -0.0000 -0.9977
vn -0.2475 0.7680 -0.5907
vn -0.2281 0.2921 0.9288
vn -0.0641 0.4565 0.8874
vn -0.2465 0.0894 0.9650
vn 0.2921 0.9530 0.0802
vn -0.0641 0.4566 0.8874
vn -0.0118 -0.9984 0.0557
vn -0.2281 0.2923 0.9287
vn -0.0910 -0.3448 0.9343
vn -0.3739 -0.7271 0.5758
vn 0.9266 -0.3727 0.0501
vn 0.6573 -0.3482 0.6684
vn 0.3353 0.1335 0.9326
vn 0.1546 -0.8361 0.5264
vn 0.9266 -0.3727 0.0502
vn 0.2829 -0.4807 0.8300
vn 0.1547 -0.8361 0.5263
vn 0.0027 -0.9674 0.2532
vn 0.0067 -0.9701 0.2425
vn 0.6059 -0.7470 0.2736
vn -0.6847 0.0892 0.7233
vn 0.5059 -0.6552 0.5610
vn -0.3740 -0.7271 0.5758
vn -0.2281 -0.2921 0.9288
vn 0.1294 -0.7442 0.6553
vn 0.2921 -0.9530 0.0802
vn -0.3739 0.7270 0.5758
vn 0.6573 0.3482 0.6684
vn 0.9266 0.3727 0.0501
vn 0.3353 -0.1334 0.9326
vn 0.9266 0.3727 0.0502
vn 0.3353 -0.1335 0.9326
vn -0.3739 0.7271 0.5758
vn 0.1547 0.8361 0.5264
vn 0.3352 -0.1335 0.9326
vn 0.2829 0.4807 0.8300
vn 0.1547 0.8361 0.5263
vn 0.0027 0.9674 0.2532
vn 0.0067 0.9701 0.2425
vn 0.7551 0.4223 0.5016
vn -0.6847 -0.0892 0.7233
vn 0.5985 0.7514 0.2779
vn -0.3740 0.7271 0.5758
vn 0.2770 -0.8408 0.4650
vn 0.3078 -0.9432 -0.1252
vn 0.4153 -0.8663 0.2774
vn 0.3832 -0.5579 0.7362
vn 0.4418 -0.7675 0.4646
vn -0.0234 -0.5082 0.8609
vn 0.1546 -0.8361 0.5263
vn 0.2829 -0.4808 0.8300
vn 0.2655 -0.9550 -0.1320
vn -0.3866 -0.8779 -0.2826
vn -0.2690 -0.9010 -0.3404
vn 0.0992 -0.9917 0.0817
vn -0.3487 -0.7434 -0.5707
vn 0.4133 -0.7202 -0.5572
vn -0.0246 -0.9052 -0.4243
vn -0.3866 -0.8779 -0.2825
vn -0.2691 -0.9009 -0.3404
vn 0.9793 -0.0023 -0.2022
vn -0.2599 -0.7500 -0.6083
vn -0.5255 -0.8288 -0.1919
vn -0.5101 -0.5662 -0.6475
vn -0.7080 -0.4081 0.5763
vn -0.1015 -0.2215 0.9699
vn 0.3354 0.1335 0.9326
vn -0.7080 -0.4080 0.5764
vn -0.5256 -0.8288 -0.1919
vn -0.6848 0.0892 0.7233
vn -0.0987 -0.0857 0.9914
vn 0.5058 -0.6553 0.5610
vn -0.0650 0.2265 0.9718
vn 0.1699 0.7986 0.5774
vn -0.2691 -0.9010 -0.3404
vn -0.3740 -0.7270 0.5758
vn -0.5255 -0.8289 -0.1919
vn 0.0060 -0.9678 0.2516
vn 0.1425 -0.9362 0.3213
vn -0.7990 0.3631 0.4793
vn -0.2280 0.2922 0.9288
vn 0.0826 -0.9892 -0.1210
vn 0.6966 0.1959 -0.6902
vn 0.2656 -0.9550 -0.1320
vn 0.4134 -0.7202 -0.5571
vn -0.3865 -0.8779 -0.2825
vn -0.2280 0.2921 0.9288
vn -0.5324 -0.5936 -0.6035
vn -0.6847 0.0892 0.7234
vn 0.0992 -0.9917 0.0818
vn 0.9793 -0.0023 -0.2023
vn 0.1700 0.7986 0.5774
vn 0.9793 -0.0022 -0.2023
vn 0.1700 0.7985 0.5775
vn -0.3488 -0.7434 -0.5707
vn 0.4153 -0.8663 0.2775
vn 0.4417 -0.7675 0.4646
vn -0.2281 -0.2922 0.9288
vn -0.1734 0.1311 0.9761
vn -0.2465 -0.0894 0.9650
vn -0.0118 0.9984 0.0557
vn -0.2599 0.7500 -0.6083
vn -0.5101 0.5662 -0.6475
vn -0.5256 0.8288 -0.1919
vn -0.7081 0.4081 0.5763
vn -0.1015 0.2215 0.9699
vn 0.3354 -0.1334 0.9326
vn -0.7080 0.4081 0.5764
vn 0.7551 0.4222 0.5015
vn -0.0987 0.0857 0.9914
vn -0.6848 -0.0892 0.7233
vn -0.0650 -0.2265 0.9718
vn 0.1797 -0.8473 0.4998
vn -0.5255 0.8289 -0.1919
vn -0.3740 0.7270 0.5758
vn 0.0061 0.9675 0.2527
vn -0.0251 0.9864 -0.1624
vn 0.1428 0.9354 0.3235
vn 0.3512 0.8479 -0.3971
vn 0.4418 0.7669 0.4656
vn -0.7990 -0.3631 0.4793
vn -0.2280 -0.2922 0.9288
vn 0.0826 0.9892 -0.1210
vn 0.6966 -0.1959 -0.6902
vn -0.0118 0.9984 0.0556
vn 0.2656 0.9550 -0.1320
vn -0.5600 0.5992 -0.5722
vn -0.7990 -0.3630 0.4793
vn 0.1076 -0.0889 -0.9902
vn -0.5600 0.5993 -0.5720
vn -0.6805 -0.0879 0.7275
vn -0.5324 0.5936 -0.6035
vn 0.1025 0.9910 0.0859
vn -0.2542 0.3183 -0.9133
vn 0.7738 0.2481 -0.5828
vn 0.7738 0.2480 -0.5828
vn 0.1797 -0.8472 0.4999
vn 0.4418 0.7668 0.4656
vn 0.3513 0.8479 -0.3971
vn 0.3832 0.5579 0.7362
vn 0.2770 0.8408 0.4650
vn 0.7738 0.2481 -0.5829
vn 0.0992 0.9917 0.0817
vn 0.2655 0.9550 -0.1320
vn -0.0234 0.5082 0.8609
vn 0.1546 0.8361 0.5263
vn -0.5600 0.5993 -0.5721
vn -0.2474 0.7680 -0.5907
vn 0.2829 0.4808 0.8300
vn -0.0467 0.0295 -0.9985
vn 0.0282 -0.0000 -0.9996
vn 0.3513 0.8479 -0.3970
vn -0.0813 0.0026 -0.9967
vn -0.1703 0.0761 -0.9824
vn -0.2193 0.0153 -0.9755
vn -0.3291 0.0050 -0.9443
vn -0.0814 0.0026 -0.9967
vn -0.0251 0.9864 -0.1625
vt 0.956512 0.505905
vt 0.596237 0.600433
vt 0.965912 0.618431
vt 0.396812 0.869675
vt 0.496227 0.918265
vt 0.510412 0.819209
vt 0.390350 0.847534
vt 0.000793 0.516968
vt 0.025245 0.455581
vt 0.126953 0.530685
vt 0.006310 0.111343
vt 0.073392 0.162449
vt 0.016556 0.041252
vt 0.002106 0.168762
vt 0.004562 0.074631
vt 0.835342 0.932526
vt 0.822121 0.854820
vt 0.881851 0.873566
vt 0.986717 0.990097
vt 0.980322 0.510777
vt 0.943405 0.989532
vt 0.128693 0.750412
vt 0.208065 0.674477
vt 0.246613 0.698837
vt 0.806854 0.808060
vt 0.917267 0.773720
vt 0.846481 0.767242
vt 0.444372 0.887050
vt 0.138733 0.128464
vt 0.974991 0.989929
vt 0.272699 0.686720
vt 0.374649 0.421126
vt 0.239464 0.229950
vt 0.028286 0.244408
vt 0.278595 0.594025
vt 0.007019 0.379974
vt 0.422211 0.613487
vt 0.948097 0.387184
vt 0.960068 0.484726
vt 0.708954 0.194061
vt 0.848663 0.201935
vt 0.976540 0.264481
vt 0.361301 0.242916
vt 0.408958 0.086132
vt 0.709099 0.096741
vt 0.706474 0.002708
vt 0.820923 0.093638
vt 0.960236 0.040909
vt 0.961212 0.562168
vt 0.544422 0.706561
vt 0.493279 0.717567
vt 0.804443 0.922256
vt 0.309486 0.654007
vt 0.480499 0.616608
vt 0.284348 0.631683
vt 0.480850 0.687744
vt 0.287811 0.678574
vt 0.923141 0.937042
vt 0.623556 0.984065
vt 0.923725 0.980350
vt 0.623053 0.937345
vt 0.255217 0.989208
vt 0.257202 0.911591
vt 0.378677 0.884979
vt 0.357994 0.837112
vt 0.387680 0.874458
vt 0.330940 0.851128
vt 0.318382 0.892296
vt 0.378632 0.905182
vt 0.221359 0.835937
vt 0.225433 0.900391
vt 0.300735 0.734589
vt 0.918076 0.096893
vt 0.875946 0.072159
vt 0.884308 0.066849
vt 0.898941 0.137352
vt 0.986938 0.151527
vt 0.996765 0.051514
vt 0.078857 0.710297
vt 0.041206 0.761032
vt 0.176407 0.803078
vt 0.284767 0.733101
vt 0.027481 0.658966
vt 0.123945 0.552602
vt 0.264229 0.659866
vt 0.019714 0.956827
vt 0.049590 0.846619
vt 0.255383 0.980064
vt 0.623456 0.969154
vt 0.923576 0.968620
vt 0.255714 0.961777
vt 0.024994 0.914478
vt 0.265690 0.715969
vt 0.248749 0.662262
vt 0.414047 0.168274
vt 0.403870 0.003990
vt 0.281479 0.002426
vt 0.267846 0.123006
vt 0.026657 0.030167
vt 0.028519 0.002197
vt 0.962708 0.009781
vt 0.957764 0.072037
vt 0.014435 0.999176
s 1
f 1/1/1 2/2/2 3/3/3
f 4/4/4 5/5/5 6/6/6
f 7/4/4 8/4/7 9/5/8
f 10/7/9 4/4/10 11/6/11
f 12/8/12 13/9/13 14/10/14
f 15/11/15 16/12/14 17/13/13
f 18/11/15 19/14/12 20/12/14
f 21/15/16 22/11/15 23/13/17
f 24/16/18 25/17/15 26/18/19
f 27/19/20 28/20/21 29/21/20
f 30/22/22 31/23/23 32/24/24
f 33/25/25 34/26/19 35/27/17
f 36/4/26 37/5/27 38/28/28
f 39/8/29 40/10/30 41/9/31
f 42/11/32 43/13/33 44/29/30
f 45/11/34 46/29/30 47/14/35
f 48/15/36 49/13/31 50/11/34
f 51/17/37 52/16/38 53/18/39
f 54/30/40 55/21/40 56/20/41
f 57/31/42 58/23/43 59/22/44
f 60/26/39 61/25/45 62/27/33
f 63/32/46 64/33/47 65/34/48
f 63/32/46 65/34/48 66/35/49
f 66/35/49 65/34/48 67/36/50
f 68/37/51 63/32/46 66/35/49
f 68/37/51 69/38/52 63/32/46
f 70/39/53 69/38/52 68/37/51
f 71/40/54 63/32/46 69/38/52
f 71/40/54 69/38/52 72/41/55
f 73/42/56 72/41/55 69/38/52
f 74/43/57 63/32/46 71/40/54
f 71/40/54 75/44/58 74/43/57
f 76/45/59 75/44/58 71/40/54
f 75/44/58 76/45/59 77/46/60
f 77/46/60 76/45/59 78/47/61
f 77/46/60 78/47/61 79/48/62
f 63/32/46 74/43/57 80/33/63
f 81/49/64 82/50/65 83/2/66
f 82/50/65 84/51/67 83/2/66
f 85/52/68 86/17/69 24/16/18
f 85/52/68 87/25/25 86/17/69
f 88/51/70 87/25/25 85/52/68
f 89/50/71 87/25/25 88/51/70
f 90/53/72 91/54/73 92/55/74
f 93/56/75 91/54/73 90/53/72
f 93/56/75 90/53/72 94/57/76
f 95/49/77 87/25/78 82/50/79
f 95/49/77 96/26/19 87/25/78
f 97/58/20 98/59/80 99/60/20
f 100/61/80 98/59/80 97/58/20
f 98/59/80 100/61/80 101/62/81
f 101/62/81 100/61/80 102/63/81
f 103/64/9 104/65/82 105/66/83
f 106/67/84 104/65/82 103/64/9
f 107/68/85 108/64/9 109/69/7
f 107/68/85 110/67/84 108/64/9
f 111/70/86 110/67/84 107/68/85
f 112/71/87 111/70/86 107/68/85
f 111/70/86 113/72/88 110/67/84
f 110/67/84 113/72/88 104/65/82
f 114/73/82 115/74/7 116/75/89
f 117/76/85 115/74/7 114/73/82
f 114/73/82 118/77/59 117/76/85
f 119/78/61 118/77/59 114/73/82
f 120/79/90 121/23/91 30/22/22
f 122/80/92 120/79/90 30/22/22
f 122/80/92 30/22/22 123/81/93
f 30/22/22 124/24/74 123/81/93
f 123/81/93 124/24/74 125/82/94
f 126/83/58 120/79/90 122/80/92
f 31/23/23 127/84/95 128/85/96
f 129/79/90 127/84/95 31/23/23
f 126/83/97 127/84/95 129/79/90
f 130/86/98 102/63/81 131/87/99
f 132/88/81 102/63/81 130/86/98
f 133/4/100 134/6/101 135/5/102
f 136/7/103 134/6/101 133/4/100
f 137/3/104 138/2/105 139/50/106
f 139/50/106 138/2/105 140/51/107
f 141/52/108 52/16/38 142/17/109
f 141/52/108 142/17/109 143/25/45
f 144/51/110 141/52/108 143/25/45
f 145/50/106 144/51/110 143/25/45
f 146/55/111 147/54/112 148/53/113
f 148/53/113 147/54/112 149/56/114
f 149/56/114 150/57/115 148/53/113
f 151/3/3 139/50/116 143/25/117
f 151/3/3 143/25/117 152/26/39
f 153/89/118 154/58/40 155/90/40
f 156/61/118 154/58/40 153/89/118
f 157/91/119 156/61/118 153/89/118
f 158/63/120 156/61/118 157/91/119
f 159/92/121 158/63/120 157/91/119
f 160/87/122 158/63/120 159/92/121
f 161/65/123 162/64/103 163/66/124
f 164/67/125 162/64/103 161/65/123
f 165/68/126 166/69/28 167/64/127
f 165/68/126 167/64/127 168/67/125
f 169/70/128 165/68/126 168/67/125
f 169/70/128 168/67/125 170/72/129
f 170/72/129 168/67/125 161/65/130
f 171/71/131 165/68/126 169/70/128
f 172/75/26 173/74/28 174/73/123
f 174/73/123 173/74/28 175/76/126
f 176/77/131 174/73/123 175/76/126
f 177/78/132 174/73/123 176/77/131
f 59/22/44 178/23/133 179/79/134
f 180/80/135 59/22/44 179/79/134
f 181/83/136 180/80/135 179/79/134
f 180/80/135 182/84/137 59/22/44
f 182/84/137 183/93/111 59/22/44
f 182/84/138 184/94/139 57/31/111
f 182/84/138 58/23/43 184/94/139
f 185/79/134 58/23/43 182/84/138
f 181/83/136 185/79/134 182/84/138
f 186/36/140 187/34/141 188/35/142
f 188/35/142 187/34/141 189/32/143
f 189/32/143 187/34/141 190/33/144
f 189/32/143 190/33/144 191/43/145
f 192/40/146 189/32/143 191/43/145
f 193/95/136 192/40/146 191/43/145
f 194/37/147 188/35/142 189/32/143
f 195/38/148 194/37/147 189/32/143
f 195/38/148 189/32/143 192/40/146
f 192/40/146 196/41/149 195/38/148
f 197/42/150 195/38/148 196/41/149
f 198/39/151 194/37/147 195/38/148
f 199/45/131 192/40/146 193/95/136
f 200/96/152 199/45/131 193/95/136
f 193/95/136 201/97/153 200/96/152
f 202/98/137 201/97/153 193/95/136
f 203/99/154 201/97/153 202/98/137
f 204/100/155 201/97/153 203/99/154
f 205/46/156 199/45/131 200/96/152
f 205/46/156 206/47/149 199/45/131
f 205/46/156 207/101/157 206/47/149
f 206/47/149 207/101/157 208/102/3
f 209/62/158 210/103/159 211/92/154
f 212/91/160 209/62/158 211/92/154
